<?xml version="1.0" standalone="no"?><!DOCTYPE svg PUBLIC "-//W3C//DTD SVG 1.1//EN" "http://www.w3.org/Graphics/SVG/1.1/DTD/svg11.dtd"><svg t="1500023402526" class="icon" style="" viewBox="0 0 1024 1024" version="1.1" xmlns="http://www.w3.org/2000/svg" p-id="3834" xmlns:xlink="http://www.w3.org/1999/xlink" width="200" height="200"><defs><style type="text/css"></style></defs><path d="M512 480.351726m-468.267254 0a468.267254 468.267254 0 1 0 936.534508 0 468.267254 468.267254 0 1 0-936.534508 0Z" fill="#0086FF" p-id="3835"></path><path d="M980.267254 480.351726c0 258.620583-209.638619 468.259203-468.259203 468.259203S43.732746 738.972309 43.732746 480.351726" fill="#00AAFF" p-id="3836"></path><path d="M452.551804 379.867851a38.193694 38.193694 0 0 0 0-76.371287H262.364274a38.193694 38.193694 0 0 0-38.193695 38.185644v277.347087a38.201745 38.201745 0 0 0 38.193695 38.177592H452.551804a38.201745 38.201745 0 0 0 0-76.387389H300.557968v-200.951647H452.551804zM761.635726 303.488513H571.448196a38.193694 38.193694 0 0 0-38.193695 38.185644v277.347087a38.201745 38.201745 0 0 0 76.387389 0V518.521267h151.897225c0.048306 0 0.080509 0.024153 0.096611 0.024153a38.193694 38.193694 0 0 0 38.193695-38.193694V341.674157a38.185644 38.185644 0 0 0-38.193695-38.185644z m-151.993836 76.379338h113.800142v62.274078H609.64189v-62.274078z" fill="#FFFFFF" p-id="3837"></path><path d="M262.364274 657.206887H452.551804c17.583269 0 32.219892-11.931504 36.672066-28.097806-4.452174-16.166302-19.088796-28.105857-36.672066-28.105857H300.557968V379.8598H452.551804c17.583269 0 32.219892-11.931504 36.672066-28.097806-4.452174-16.158251-19.088796-28.097806-36.672066-28.097807H262.364274a38.193694 38.193694 0 0 0-38.193695 38.185644v257.171413a38.201745 38.201745 0 0 0 38.193695 38.185643zM761.635726 323.664187H571.448196a38.193694 38.193694 0 0 0-38.193695 38.185644v257.171413a38.201745 38.201745 0 0 0 76.387389 0V518.521267h151.897225c0.048306 0 0.080509 0.024153 0.096611 0.024153a38.193694 38.193694 0 0 0 38.193695-38.193694V361.849831a38.185644 38.185644 0 0 0-38.193695-38.185644z m-38.201745 76.371287V462.309553H609.64189V379.8598h113.800142v20.175674z" fill="#D8E5EA" p-id="3838"></path><path d="M571.448196 669.283308a50.318421 50.318421 0 0 1-50.270116-50.254013v-277.355138a50.318421 50.318421 0 0 1 50.270116-50.262065h190.18753a50.318421 50.318421 0 0 1 50.270116 50.262065v138.677569a50.326472 50.326472 0 0 1-51.018854 50.245962H621.718311v88.423556a50.318421 50.318421 0 0 1-50.270115 50.262064z m0-353.718374a26.141426 26.141426 0 0 0-26.117274 26.109223v277.347087c0 14.395094 11.714128 26.101171 26.117274 26.101171s26.117273-11.714128 26.117273-26.101171V518.521267a12.076421 12.076421 0 0 1 12.076421-12.076421h151.897225l0.644076 0.016102a26.165579 26.165579 0 0 0 25.569808-26.117273V341.674157a26.141426 26.141426 0 0 0-26.117273-26.109223H571.448196z m151.985785 138.653416H609.64189a12.076421 12.076421 0 0 1-12.076421-12.076421v-62.274078a12.076421 12.076421 0 0 1 12.076421-12.076421h113.800142a12.076421 12.076421 0 0 1 12.076421 12.076421v62.274078a12.076421 12.076421 0 0 1-12.084472 12.076421z m-101.71567-24.152842h89.6473v-38.121236H621.718311v38.121236zM452.551804 669.283308H262.364274a50.318421 50.318421 0 0 1-50.270116-50.254013v-277.355138a50.318421 50.318421 0 0 1 50.270116-50.262065H452.551804a50.318421 50.318421 0 0 1 50.270116 50.262065c0 14.757387-6.593726 28.741882-18.09853 38.378866a32.316503 32.316503 0 0 1-2.479692 2.012737 51.091312 51.091312 0 0 1-7.897979 4.75811 60.438462 60.438462 0 0 1-3.598773 1.61824 53.530749 53.530749 0 0 1-5.635664 1.763158c-1.400865 0.394496-2.334775 0.636025-3.284786 0.813145a48.410347 48.410347 0 0 1-9.274692 0.917808H312.634389v176.798805H452.551804a50.334523 50.334523 0 0 1 50.270116 50.286218c0 14.725183-6.585675 28.709678-18.082428 38.370815-0.644076 0.563566-1.505527 1.296203-2.415284 1.964431a47.92729 47.92729 0 0 1-3.944964 2.624609 48.450601 48.450601 0 0 1-4.170391 2.254265c-1.046623 0.515261-2.318673 1.094929-3.622926 1.602139a48.225175 48.225175 0 0 1-5.595409 1.730954 32.984732 32.984732 0 0 1-2.946647 0.756789 49.706549 49.706549 0 0 1-9.492067 0.958062zM262.364274 315.564934a26.141426 26.141426 0 0 0-26.117273 26.109223v277.347087a26.133375 26.133375 0 0 0 26.117273 26.101171H452.551804c1.481374 0 3.083513-0.16907 4.886925-0.507209 0.16907-0.032204 0.491108-0.144917 0.821197-0.233478l0.877553-0.241528c0.941961-0.233477 1.86782-0.499159 2.769526-0.837299 0.611872-0.233477 1.231795-0.531363 1.843667-0.837298 0.869502-0.410598 1.513578-0.772891 2.141552-1.151286 0.603821-0.370344 1.320355-0.805095 2.004686-1.320355 0.450853-0.33814 0.780942-0.627974 1.111031-0.917808 6.215331-5.233116 9.669188-12.478968 9.669188-20.05491a26.149477 26.149477 0 0 0-26.117274-26.133375h-152.001887a12.076421 12.076421 0 0 1-12.076421-12.076422v-200.951647a12.076421 12.076421 0 0 1 12.076421-12.076421H452.551804c1.489425 0 3.067411-0.16907 4.806416-0.507209l1.61824-0.434752c1.054674-0.273732 2.069093-0.563566 3.043259-0.925859 0.418649-0.16907 1.119082-0.50721 1.803412-0.837298a26.970674 26.970674 0 0 0 4.065728-2.439437c0.483057-0.354242 0.756789-0.611872 1.038572-0.861452 6.28779-5.273371 9.733595-12.519223 9.733596-20.111266a26.141426 26.141426 0 0 0-26.117274-26.109223H262.364274z" fill="#33363A" p-id="3839"></path><path d="M512.008051 960.68735c-264.868119 0-480.351726-215.475556-480.351726-480.335624C31.656325 215.483607 247.139932 0 512.008051 0c264.860068 0 480.335624 215.483607 480.335624 480.351726 0 264.860068-215.475556 480.335624-480.335624 480.335624zM512.008051 24.152842C260.456199 24.152842 55.809167 228.799874 55.809167 480.351726c0 251.543801 204.647032 456.182782 456.198884 456.182781 251.543801 0 456.182782-204.638981 456.182782-456.182781C968.190833 228.799874 763.543801 24.152842 512.008051 24.152842z" fill="#33363A" p-id="3840"></path><path d="M638.585046 885.31438l-126.576995 126.593097-126.601148-126.593097" fill="#00AAFF" p-id="3841"></path><path d="M512.008051 1023.983898c-3.204277 0-6.271688-1.27205-8.542055-3.534366L376.872899 893.848384a12.076421 12.076421 0 1 1 17.076059-17.076059l118.059093 118.051042 118.042991-118.051042a12.076421 12.076421 0 1 1 17.076059 17.076059l-126.585046 126.593097a12.076421 12.076421 0 0 1-8.534004 3.542417z" fill="#33363A" p-id="3842"></path></svg>